<svg aria-hidden="true" style="width:0;height:0;position:absolute;overflow:hidden" xmlns="http://www.w3.org/2000/svg"><defs><symbol id="icon-svg-search" viewBox="0 0 32 32"><path d="M31.501 28.27 20.163 16.932a10.97 10.97 0 0 0-1.447-13.721 10.89 10.89 0 0 0-7.753-3.212h-.043a10.889 10.889 0 0 0-7.771 3.272c-4.225 4.29-4.186 11.232.088 15.475a10.966 10.966 0 0 0 13.693 1.42l11.338 11.338c.33.33.764.495 1.197.495s.867-.165 1.197-.495l.84-.84c.66-.66.66-1.734 0-2.394zm-.902 1.494-.84.84a.42.42 0 0 1-.592 0L17.454 18.891a.639.639 0 0 0-.824-.066 9.648 9.648 0 0 1-12.497-.983C.356 14.092.321 7.956 4.055 4.166a9.625 9.625 0 0 1 6.868-2.892h.038a9.623 9.623 0 0 1 6.851 2.838 9.643 9.643 0 0 1 1.008 12.522.637.637 0 0 0 .066.824l11.713 11.713a.42.42 0 0 1 0 .592z"/><path d="M16.545 5.381c-3.079-3.079-8.089-3.079-11.168 0-1.492 1.492-2.313 3.475-2.313 5.584s.821 4.092 2.313 5.584 3.475 2.313 5.584 2.313a7.845 7.845 0 0 0 5.584-2.313c3.079-3.079 3.079-8.089 0-11.168zm-.902 10.267c-1.251 1.251-2.914 1.94-4.683 1.94s-3.432-.689-4.683-1.94-1.94-2.914-1.94-4.683.689-3.432 1.94-4.683c1.291-1.291 2.987-1.937 4.683-1.937s3.392.646 4.683 1.937a6.63 6.63 0 0 1 0 9.365z"/><path d="M7.074 9.809a.638.638 0 0 0-1.222-.362 5.327 5.327 0 0 0 1.341 5.286.638.638 0 0 0 .902-.901 4.055 4.055 0 0 1-1.02-4.023zM9.015 6.004a5.288 5.288 0 0 0-1.822 1.194.637.637 0 1 0 .902.901 4.014 4.014 0 0 1 1.385-.908.637.637 0 1 0-.465-1.187z"/></symbol></defs></svg>