<svg aria-hidden="true" style="position: absolute; width: 0; height: 0; overflow: hidden;" version="1.1" xmlns="http://www.w3.org/2000/svg" xmlns:xlink="http://www.w3.org/1999/xlink">
<defs>
<symbol id="icon-svg-search" viewBox="0 0 32 32">
<path d="M31.501 28.27l-11.338-11.338c1.3-2.002 1.913-4.394 1.733-6.795-0.197-2.612-1.326-5.071-3.18-6.926-2.072-2.072-4.824-3.212-7.753-3.212-0.014 0-0.028 0-0.043 0-2.944 0.011-5.704 1.173-7.771 3.272-4.225 4.29-4.186 11.232 0.088 15.475 1.855 1.842 4.311 2.962 6.916 3.154 2.395 0.176 4.78-0.438 6.777-1.734l11.338 11.338c0.33 0.33 0.764 0.495 1.197 0.495s0.867-0.165 1.197-0.495l0.84-0.84c0.66-0.66 0.66-1.734 0-2.394zM30.599 29.764l-0.84 0.84c-0.163 0.163-0.429 0.163-0.592 0l-11.713-11.713c-0.123-0.123-0.287-0.187-0.451-0.187-0.13 0-0.261 0.040-0.373 0.121-3.858 2.79-9.114 2.377-12.497-0.983-3.777-3.75-3.812-9.886-0.078-13.676 1.827-1.855 4.266-2.882 6.868-2.892 0.013 0 0.025-0 0.038-0 2.588 0 5.020 1.007 6.851 2.838 3.384 3.384 3.808 8.65 1.008 12.522-0.183 0.254-0.156 0.603 0.066 0.824l11.713 11.713c0.163 0.163 0.163 0.429 0 0.592z"></path>
<path d="M16.545 5.381c-3.079-3.079-8.089-3.079-11.168 0-1.492 1.492-2.313 3.475-2.313 5.584s0.821 4.092 2.313 5.584 3.475 2.313 5.584 2.313c2.109 0 4.092-0.821 5.584-2.313 3.079-3.079 3.079-8.089-0-11.168zM15.643 15.648c-1.251 1.251-2.914 1.94-4.683 1.94s-3.432-0.689-4.683-1.94c-1.251-1.251-1.94-2.914-1.94-4.683s0.689-3.432 1.94-4.683c1.291-1.291 2.987-1.937 4.683-1.937s3.392 0.646 4.683 1.937c2.582 2.582 2.582 6.783 0 9.365z"></path>
<path d="M7.074 9.809c0.1-0.337-0.093-0.692-0.43-0.792s-0.692 0.092-0.792 0.43c-0.556 1.877-0.043 3.903 1.341 5.286 0.124 0.124 0.288 0.187 0.451 0.187s0.326-0.062 0.451-0.187c0.249-0.249 0.249-0.652 0-0.901-1.053-1.053-1.443-2.594-1.020-4.023z"></path>
<path d="M9.015 6.004c-0.685 0.268-1.298 0.67-1.822 1.194-0.249 0.249-0.249 0.652 0 0.901 0.124 0.124 0.288 0.187 0.451 0.187s0.326-0.062 0.451-0.187c0.399-0.399 0.865-0.705 1.385-0.908 0.328-0.128 0.489-0.498 0.361-0.826s-0.498-0.489-0.826-0.361z"></path>
</symbol>
</defs>
</svg>
